<?xml version="1.0" encoding="iso-8859-1"?>
<!-- Uploaded to: SVG Repo, www.svgrepo.com, Generator: SVG Repo Mixer Tools -->
<svg fill="#000000" height="800px" width="800px" version="1.1" id="Layer_1" xmlns="http://www.w3.org/2000/svg" xmlns:xlink="http://www.w3.org/1999/xlink" 
	 viewBox="0 0 512 512" xml:space="preserve">
<g>
	<g>
		<path d="M378.461,50.471C345.652,17.893,302.215,0,256.012,0c-0.419,0-0.843,0.002-1.262,0.004
			c-45.274,0.32-88.091,18.097-120.565,50.058c-32.481,31.969-50.929,74.498-51.943,119.759
			c-1.066,47.514,16.713,92.286,50.059,126.07c18.071,18.307,28.436,42.816,28.443,67.249v77.418h18.112
			C181.909,480.461,215.328,512,256,512s74.091-31.539,77.144-71.442h18.112V363.14c0.006-24.576,10.196-48.908,27.959-66.762
			c32.623-32.791,50.589-76.321,50.589-122.574C429.804,127.147,411.571,83.346,378.461,50.471z M256,476.279
			c-20.957,0-38.344-15.553-41.242-35.721h82.484C294.344,460.726,276.958,476.279,256,476.279z M315.535,404.837h-119.07v-23.814
			h119.07V404.837z M353.891,271.185c-20.08,20.184-33.106,46.492-37.074,74.117H195.16c-4.02-27.535-17.172-53.977-37.437-74.505
			c-26.493-26.84-40.617-62.415-39.771-100.176c0.806-35.915,15.468-69.688,41.287-95.1c25.818-25.409,59.827-39.544,95.761-39.797
			c37.118-0.241,71.99,13.976,98.29,40.094c26.304,26.12,40.791,60.917,40.791,97.985
			C394.082,210.55,379.809,245.135,353.891,271.185z"/>
	</g>
</g>
<g>
	<g>
		<polygon points="314.47,135.018 289.213,160.275 314.091,185.154 289.213,210.032 314.47,235.289 364.607,185.154 		"/>
	</g>
</g>
<g>
	<g>
		<polygon points="222.787,160.275 197.53,135.018 147.393,185.154 197.53,235.289 222.787,210.032 197.909,185.154 		"/>
	</g>
</g>
<g>
	<g>
		<polygon points="252.664,114.307 222.833,256 259.336,256 289.167,114.307 		"/>
	</g>
</g>
</svg>